<?xml version="1.0" encoding="utf-8"?>
<!-- Generator: Adobe Illustrator 22.0.1, SVG Export Plug-In . SVG Version: 6.00 Build 0)  -->
<!DOCTYPE svg PUBLIC "-//W3C//DTD SVG 1.1//EN" "http://www.w3.org/Graphics/SVG/1.1/DTD/svg11.dtd">
<svg  fill="currentColor" version="1.1" id="Group" xmlns="http://www.w3.org/2000/svg" xmlns:xlink="http://www.w3.org/1999/xlink" x="0px" y="0px"
	 viewBox="0 0 24 24" enable-background="new 0 0 24 24" xml:space="preserve">

<path id="Shape" d="M3.9,12c0-1.7,1.4-3.1,3.1-3.1h4V7H7c-2.8,0-5,2.2-5,5s2.2,5,5,5h4v-1.9H7C5.3,15.1,3.9,13.7,3.9,12z M8,13h8v-2
	H8V13z M17,7h-4v1.9h4c1.7,0,3.1,1.4,3.1,3.1s-1.4,3.1-3.1,3.1h-4V17h4c2.8,0,5-2.2,5-5S19.8,7,17,7z"/>
</svg>
