<?xml version="1.0" encoding="utf-8"?>
<!-- Generator: Adobe Illustrator 22.0.1, SVG Export Plug-In . SVG Version: 6.00 Build 0)  -->
<svg  fill="currentColor" version="1.1" id="Group" xmlns="http://www.w3.org/2000/svg" xmlns:xlink="http://www.w3.org/1999/xlink" x="0px" y="0px"
	 viewBox="0 0 24 24" enable-background="new 0 0 24 24" xml:space="preserve">

<g id="Shape">
	<rect x="7" y="3" width="2" height="2"/>
	<path d="M5,21v-2H3C3,20.1,3.9,21,5,21z"/>
	<rect x="15" y="3" width="2" height="2"/>
	<path d="M19,3v2h2C21,3.9,20.1,3,19,3z"/>
	<rect x="3" y="15" width="2" height="2"/>
	<rect x="11" y="3" width="2" height="2"/>
	<path d="M3,5h2V3C3.9,3,3,3.9,3,5z"/>
	<rect x="7" y="19" width="2" height="2"/>
	<rect x="19" y="7" width="2" height="2"/>
	<rect x="3" y="11" width="2" height="2"/>
	<rect x="3" y="7" width="2" height="2"/>
	<polygon points="10.2,6 6,6 6,10.2 7.6,8.7 9.7,10.8 10.8,9.7 8.7,7.6 	"/>
	<path d="M13,11c-1.1,0-2,0.9-2,2v2v2v2v2h2h2h2h2c1.1,0,2-0.9,2-2v-2v-2v-2v-2h-2H13z"/>
</g>
</svg>
