<?xml version="1.0" encoding="UTF-8"?>
<svg width="118px" height="30px" viewBox="0 0 118 30" version="1.1" xmlns="http://www.w3.org/2000/svg" xmlns:xlink="http://www.w3.org/1999/xlink">
    <!-- Generator: Sketch 51.3 (57544) - http://www.bohemiancoding.com/sketch -->
    <title>logo</title>
    <desc>Created with Sketch.</desc>
    <defs></defs>
    <g id="Symbols" stroke="none" stroke-width="1" fill="none" fill-rule="evenodd">
        <g id="navigation-bar" transform="translate(-50.000000, -10.000000)">
            <g id="logo">
                <g transform="translate(50.000000, 10.000000)">
                    <path d="M102.864,27.6290769 C102.122308,28.8895385 100.320923,29.9201538 98.8592308,29.9201538 L1.69984615,29.9201538 C0.238153846,29.9201538 -0.352153846,28.8895385 0.388615385,27.6290769 L15.0198462,2.73138462 C15.7601538,1.47092308 17.562,0.439846154 19.0241538,0.439846154 L116.184,0.439846154 C117.645692,0.439846154 118.236,1.47092308 117.495692,2.73138462 L102.864,27.6290769" id="Fill-20" fill="#EC9430"></path>
                    <polygon id="Fill-22" fill="#FFFFFE" points="87.8349231 19.6753846 90.5132308 19.6753846 90.5132308 10.1496923 87.8349231 10.1496923"></polygon>
                    <polyline id="Fill-23" fill="#FFFFFE" points="94.3643077 14.9238462 94.3583077 14.9238462 94.3643077 14.9016923 97.1132308 10.1496923 94.4353846 10.1496923 91.6855385 14.9016923 91.7007692 14.9238462 91.6855385 14.9238462 94.4353846 19.6753846 97.1132308 19.6753846 94.3643077 14.9238462"></polyline>
                    <polyline id="Fill-24" fill="#FFFFFE" points="64.8198462 10.1506154 62.6690769 10.1506154 57.1689231 19.6753846 59.8776923 19.6753846 63.7943077 12.8935385 63.7943077 19.6753846 66.5021538 19.6753846 66.5021538 10.1506154 64.8198462 10.1506154"></polyline>
                    <polyline id="Fill-25" fill="#FFFFFE" points="35.4821538 15.7047692 39.6978462 15.7047692 40.6107692 14.1429231 36.3341538 14.1429231 35.4821538 15.7047692"></polyline>
                    <path d="M34.62,13.7626154 L34.6227692,13.7630769 C34.6227692,12.5593846 34.9827692,12.1070769 36.1536923,12.1070769 L39.9641538,12.1070769 L41.1036923,10.1326154 L35.7535385,10.1326154 C33.4753846,10.1326154 31.9698462,10.9315385 31.9698462,13.818 L31.9698462,19.6938462 L40.2018462,19.6938462 L41.3413846,17.7198462 L34.62,17.7198462 L34.62,13.7626154" id="Fill-26" fill="#FFFFFE"></path>
                    <polyline id="Fill-27" fill="#FFFFFE" points="80.8929231 15.7047692 85.11 15.7047692 86.0224615 14.1429231 81.7458462 14.1429231 80.8929231 15.7047692"></polyline>
                    <path d="M80.124,13.7626154 L80.1267692,13.7630769 C80.1267692,12.5593846 80.4872308,12.1070769 81.6586154,12.1070769 L85.4681538,12.1070769 L86.6090769,10.1326154 L81.2584615,10.1326154 C78.9803077,10.1326154 77.4747692,10.9315385 77.4747692,13.818 L77.4747692,19.6938462 L85.7063077,19.6938462 L86.8463077,17.7198462 L80.124,17.7198462 L80.124,13.7626154" id="Fill-28" fill="#FFFFFE"></path>
                    <polyline id="Fill-29" fill="#FFFFFE" points="67.6841538 12.132 71.016 12.132 71.016 19.6753846 73.6370769 19.6753846 73.6370769 12.132 76.1021538 12.132 77.2458462 10.1506154 68.8292308 10.1506154 67.6841538 12.132"></polyline>
                    <path d="M46.86,17.7230769 L45.4061538,17.7230769 L45.4061538,12.1029231 L46.86,12.1029231 C48.9770769,12.1029231 49.6407692,12.4758462 49.6407692,14.8407692 C49.6407692,17.2056923 48.9770769,17.7230769 46.86,17.7230769 Z M47.4304615,10.1326154 L42.8381538,10.1326154 L42.8381538,19.6938462 L47.5532308,19.6938462 C50.8647692,19.6938462 52.3546154,18.4163077 52.3546154,14.838 C52.3546154,11.454 50.8795385,10.1326154 47.4304615,10.1326154 L47.4304615,10.1326154 Z" id="Fill-30" fill="#FFFFFE"></path>
                    <polygon id="Fill-31" fill="#FFFFFE" points="53.8495385 19.6753846 56.5273846 19.6753846 56.5273846 10.1506154 53.8495385 10.1506154"></polygon>
                    <polyline id="Fill-32" fill="#FFFFFE" points="24.5127692 14.9912308 24.5127692 10.1506154 21.3281538 10.1603077 15.8353846 19.6652308 18.462 19.6652308 21.8349231 13.8309231 21.8349231 19.626 21.8118462 19.6652308 21.8349231 19.6652308 21.8349231 19.6753846 24.5127692 19.6753846 27.8109231 13.8309231 27.8109231 19.6753846 30.4892308 19.6753846 30.4892308 10.1506154 27.3046154 10.1603077 24.5127692 14.9912308"></polyline>
                </g>
            </g>
        </g>
    </g>
</svg>